<?xml version="1.0" standalone="no"?><!DOCTYPE svg PUBLIC "-//W3C//DTD SVG 1.1//EN" "http://www.w3.org/Graphics/SVG/1.1/DTD/svg11.dtd"><svg t="1575945435603" class="icon" viewBox="0 0 1024 1024" version="1.1" xmlns="http://www.w3.org/2000/svg" p-id="3523" data-spm-anchor-id="a313x.7781069.0.i7" xmlns:xlink="http://www.w3.org/1999/xlink" width="200" height="200"><defs><style type="text/css"></style></defs><path d="M907.618072 232.742353 744.713682 232.742353 744.713682 116.382952c0-12.852708-10.419786-23.272495-23.272495-23.272495L302.556765 93.110457c-12.852708 0-23.272495 10.418762-23.272495 23.272495l0 116.360425L116.380904 232.743377c-12.852708 0-23.272495 10.419786-23.272495 23.272495s10.418762 23.272495 23.272495 23.272495l791.237168 0c12.852708 0 23.272495-10.419786 23.272495-23.272495S920.469756 232.742353 907.618072 232.742353zM325.829259 139.654423l372.340458 0 0 93.08793L325.829259 232.742353 325.829259 139.654423z" p-id="3524" fill="#0AAFDE"></path><path d="M791.257647 372.362985c-12.852708 0-23.272495 10.418762-23.272495 23.272495l0 488.712146L256.012799 884.347625 256.012799 395.635479c0-12.852708-10.418762-23.272495-23.272495-23.272495s-23.272495 10.418762-23.272495 23.272495l0 511.983617c0 12.852708 10.418762 23.272495 23.272495 23.272495l558.516318 0c12.852708 0 23.272495-10.419786 23.272495-23.272495L814.529118 395.635479C814.529118 382.782771 804.110355 372.362985 791.257647 372.362985z" p-id="3525" fill="#0AAFDE"></path><path d="M442.189684 767.987201l0-372.351721c0-12.852708-10.418762-23.272495-23.272495-23.272495s-23.272495 10.418762-23.272495 23.272495l0 372.351721c0 12.852708 10.418762 23.272495 23.272495 23.272495S442.189684 780.839909 442.189684 767.987201z" p-id="3526" fill="#0AAFDE"></path><path d="M628.353257 767.987201l0-372.351721c0-12.852708-10.419786-23.272495-23.272495-23.272495s-23.272495 10.418762-23.272495 23.272495l0 372.351721c0 12.852708 10.419786 23.272495 23.272495 23.272495S628.353257 780.839909 628.353257 767.987201z" p-id="3527" fill="#0AAFDE"></path></svg>