<?xml version="1.0" standalone="no"?><!DOCTYPE svg PUBLIC "-//W3C//DTD SVG 1.1//EN" "http://www.w3.org/Graphics/SVG/1.1/DTD/svg11.dtd"><svg t="1575944937978" class="icon" viewBox="0 0 1024 1024" version="1.1" xmlns="http://www.w3.org/2000/svg" p-id="2736" xmlns:xlink="http://www.w3.org/1999/xlink" width="200" height="200"><defs><style type="text/css"></style></defs><path d="M961.88375 141.391258c-15.998054-15.997338-41.934848-15.997338-57.930752 0L498.44265 546.884506c-15.998054 15.99529-15.998054 41.930957 0 57.928294 15.996006 15.99529 41.9328 15.99529 57.928704 0l405.512294-405.493248C977.879654 183.322214 977.879654 157.386547 961.88375 141.391258zM811.660186 576.35881c-22.415462 0-40.589107 18.17088-40.589107 40.587366l0 202.937992c0 22.416589-18.171597 40.587366-40.589107 40.587366L202.819615 860.471534c-22.41751 0-40.589107-18.17088-40.589107-40.587366L162.230508 170.482813c0-22.414541 18.171597-40.587366 40.589107-40.587366l405.89302 0c22.41751 0 40.589107-18.17088 40.589107-40.587366 0-22.414541-18.171597-40.587366-40.589107-40.587366L162.230517 48.720713c-44.832973 0-81.178214 36.343706-81.178214 81.174835l0 730.577181c0 44.831027 36.345242 81.176883 81.178214 81.176883l608.840553 0c44.835021 0 81.178214-36.345754 81.178214-81.176883L852.249285 616.94619C852.249293 594.52969 834.077696 576.35881 811.660186 576.35881z" p-id="2737" fill="#0AAFDE"></path></svg>